<svg width="24" height="24" viewBox="0 0 24 24" fill="none" xmlns="http://www.w3.org/2000/svg">
<path d="M23.0092 4.43531C22.8736 4.22472 22.6872 4.05159 22.4672 3.93184C22.2472 3.81209 22.0006 3.74956 21.7501 3.75H8.32608C8.03717 3.74998 7.75439 3.8334 7.51174 3.99023C7.2691 4.14706 7.07691 4.37063 6.95827 4.63406L0.883271 18.1341C0.780421 18.3624 0.736398 18.6129 0.755217 18.8627C0.774036 19.1125 0.855098 19.3535 0.991008 19.5639C1.12692 19.7743 1.31335 19.9473 1.53329 20.0672C1.75323 20.187 1.99968 20.2499 2.25015 20.25H15.6742C15.9631 20.25 16.2459 20.1666 16.4885 20.0098C16.7312 19.8529 16.9234 19.6294 17.042 19.3659L23.117 5.86594C23.22 5.63745 23.2641 5.38681 23.2452 5.1369C23.2264 4.88699 23.1453 4.64579 23.0092 4.43531ZM15.6742 18.75H2.25015L8.32608 5.25H21.7501L15.6742 18.75Z" fill="#61677A"/>
</svg>
